<svg width="62" height="62" viewBox="0 0 62 62" fill="none" xmlns="http://www.w3.org/2000/svg">
<g clip-path="url(#clip0_21_722)">
<path d="M31 5.16675C16.74 5.16675 5.16663 16.7401 5.16663 31.0001C5.16663 45.2601 16.74 56.8334 31 56.8334C45.26 56.8334 56.8333 45.2601 56.8333 31.0001C56.8333 16.7401 45.26 5.16675 31 5.16675ZM31 12.9167C35.2883 12.9167 38.75 16.3784 38.75 20.6667C38.75 24.9551 35.2883 28.4167 31 28.4167C26.7116 28.4167 23.25 24.9551 23.25 20.6667C23.25 16.3784 26.7116 12.9167 31 12.9167ZM31 49.6001C24.5416 49.6001 18.8325 46.2934 15.5 41.2817C15.5775 36.1409 25.8333 33.3251 31 33.3251C36.1408 33.3251 46.4225 36.1409 46.5 41.2817C43.1675 46.2934 37.4583 49.6001 31 49.6001Z" fill="black"/>
</g>
<defs>
<clipPath id="clip0_21_722">
<rect width="62" height="62" fill="white"/>
</clipPath>
</defs>
</svg>
